<svg width="520" height="520" viewBox="0 0 520 520" fill="none" xmlns="http://www.w3.org/2000/svg">
<g filter="url(#filter0_d_384_122)">
<path d="M196 320L260 256M366.667 277.333C366.667 243.386 353.181 210.828 329.176 186.824C305.172 162.819 272.614 149.333 238.667 149.333M452 277.333C452 220.754 429.524 166.492 389.516 126.484C349.508 86.4761 295.246 64 238.667 64M89.3333 213.333C71.9348 243.095 64.8883 277.782 69.2954 311.974C73.7025 346.165 89.3148 377.932 113.692 402.308C138.068 426.685 169.835 442.297 204.026 446.705C238.218 451.112 272.905 444.065 302.667 426.667L89.3333 213.333Z" stroke="#009697" stroke-width="42.6667" stroke-linecap="round" stroke-linejoin="round"/>
</g>
<defs>
<filter id="filter0_d_384_122" x="0" y="0" width="520" height="520" filterUnits="userSpaceOnUse" color-interpolation-filters="sRGB">
<feFlood flood-opacity="0" result="BackgroundImageFix"/>
<feColorMatrix in="SourceAlpha" type="matrix" values="0 0 0 0 0 0 0 0 0 0 0 0 0 0 0 0 0 0 127 0" result="hardAlpha"/>
<feOffset dy="4"/>
<feGaussianBlur stdDeviation="2"/>
<feComposite in2="hardAlpha" operator="out"/>
<feColorMatrix type="matrix" values="0 0 0 0 0 0 0 0 0 0 0 0 0 0 0 0 0 0 0.25 0"/>
<feBlend mode="normal" in2="BackgroundImageFix" result="effect1_dropShadow_384_122"/>
<feBlend mode="normal" in="SourceGraphic" in2="effect1_dropShadow_384_122" result="shape"/>
</filter>
</defs>
</svg>
